<svg width="380" height="269" viewBox="0 0 380 269" fill="none" xmlns="http://www.w3.org/2000/svg">
<g clip-path="url(#clip0_2_1944)">
<g clip-path="url(#clip1_2_1944)">
<mask id="mask0_2_1944" style="mask-type:luminance" maskUnits="userSpaceOnUse" x="0" y="0" width="379" height="269">
<path d="M0.0800781 0H378.922V269H0.0800781V0Z" fill="white"/>
</mask>
<g mask="url(#mask0_2_1944)">
<g style="mix-blend-mode:multiply" opacity="0.212">
<path fill-rule="evenodd" clip-rule="evenodd" d="M300.245 196.605C292.223 210.184 283.184 219.804 272.013 227.628C263.836 233.357 255.069 237.887 245.77 241.279C236.245 244.751 226.358 247.171 216.279 248.701C201.643 250.923 186.944 251.752 172.118 251.097C155.631 250.37 139.657 247.228 124.456 240.804C118.875 238.444 113.294 235.789 108.469 231.886C104.819 228.933 100.664 226.519 97.3702 223.232C92.5782 218.452 88.0132 213.353 83.9662 207.936C75.8242 197.045 71.1702 184.633 69.5012 171.22C68.5862 163.881 67.6422 156.476 67.6892 149.113C67.7402 141.475 68.8882 133.844 69.7142 126.227C70.4112 119.776 71.2192 113.335 72.1892 106.921C73.6082 97.543 74.6502 88.056 76.8792 78.868C79.7172 67.167 82.6402 55.369 88.9012 44.851C94.9692 34.654 102.782 25.958 113.175 20.099C122.274 14.97 132.286 12.781 142.908 12.931C154.643 13.095 165.28 16.862 175.197 22.542C182.441 26.691 189.084 31.885 195.248 37.616C200.327 42.336 205.342 47.176 210.824 51.394C216.595 55.835 222.362 60.376 228.975 63.627L257.049 77.593C265.218 81.786 272.691 87.047 279.828 92.828C285.683 97.569 290.688 103.085 294.849 109.258C302.672 120.866 308.454 133.271 309.588 147.506C310.263 155.97 310.66 164.366 308.776 172.676C307.859 176.725 306.755 180.763 305.32 184.65C303.573 189.383 301.388 193.951 300.245 196.606V196.605Z" fill="#E6A386"/>
</g>
</g>
<path d="M304.429 175.292H96.5417L65.5127 212.674H277.871L304.429 175.292Z" stroke="#FA6666" stroke-width="3.934" stroke-linejoin="round"/>
<path d="M104.828 175.292L115.917 211.664M157.249 175.292L169.346 214.695M209.669 175.292L223.782 214.695M264.106 175.292L275.195 212.674" stroke="#FA6666" stroke-width="3.934" stroke-linecap="round" stroke-linejoin="round"/>
<path d="M290.315 153.065L334.671 214.695" stroke="#FA6666" stroke-width="7.868" stroke-linecap="round" stroke-linejoin="round"/>
<path d="M294.328 169.23H300.628C306.067 169.23 310.477 166.655 310.477 161.391C310.477 156.127 306.067 152.054 300.628 152.054H285.275" stroke="#00455D" stroke-width="1.868" stroke-linecap="round" stroke-linejoin="round"/>
<path d="M294.154 151.044H291.838H285.275L330.254 212.544C330.254 212.544 332.378 217.076 334.694 215.287C337.01 213.498 334.887 210.816 331.991 207.367C329.095 203.918 292.19 151.444 292.19 151.444" stroke="#00455D" stroke-width="1.868" stroke-linecap="round" stroke-linejoin="round"/>
<path d="M306.446 180.036L278.926 217.47H66.3107C62.1237 216.894 63.8477 214.281 63.8477 214.281L96.6097 173.271H301.626" stroke="#00455D" stroke-width="1.868" stroke-linecap="round" stroke-linejoin="round"/>
<path d="M299.388 178.323H269.145L277.948 209.643L299.388 178.323ZM215.717 178.323L225.45 210.654H272.17L262.923 178.323H215.717ZM161.28 178.323L171.705 210.397L218.741 210.654L208.316 178.323H161.28Z" stroke="#00455D" stroke-width="1.868" stroke-linejoin="round"/>
<path d="M107.853 178.323L117.965 210.654H165.314L155.203 178.323H107.853Z" stroke="#353E48" stroke-width="1.868" stroke-linejoin="round"/>
<path d="M70.5527 212.674L97.1267 178.323H102.384L111.885 212.674H70.5527Z" stroke="#00455D" stroke-width="1.705" stroke-linejoin="round"/>
<path fill-rule="evenodd" clip-rule="evenodd" d="M99.7877 215.2C99.7877 235.009 83.9907 251.067 64.5047 251.067C45.0187 251.067 29.2217 235.009 29.2217 215.2C29.2217 195.391 45.0187 179.333 64.5047 179.333C83.9907 179.333 99.7877 195.391 99.7877 215.2ZM369.955 215.2C369.955 235.009 354.158 251.067 334.672 251.067C315.186 251.067 299.389 235.009 299.389 215.2C299.389 195.391 315.186 179.333 334.672 179.333C354.158 179.333 369.955 195.391 369.955 215.2Z" fill="#FA6666" stroke="#00455D" stroke-width="1.868" stroke-linejoin="round"/>
<path d="M78.6172 214.695C78.6172 221.949 72.7502 227.829 65.5122 227.829C58.2742 227.829 52.4072 221.949 52.4072 214.695C52.4072 207.441 58.2752 201.561 65.5122 201.561C72.7492 201.561 78.6172 207.441 78.6172 214.695Z" stroke="#00455D" stroke-width="1.868" stroke-linejoin="round"/>
<path d="M124.99 214.19C124.993 216.732 123.985 219.172 122.189 220.972C120.393 222.771 117.956 223.784 115.413 223.788C112.868 223.788 110.427 222.777 108.627 220.977C106.827 219.177 105.815 216.735 105.815 214.19C105.815 211.644 106.827 209.203 108.627 207.403C110.427 205.603 112.868 204.592 115.413 204.592C117.956 204.595 120.393 205.608 122.189 207.408C123.985 209.208 124.993 211.647 124.99 214.19Z" fill="#97CAD1"/>
<path d="M124.99 214.19C124.993 216.732 123.985 219.172 122.189 220.972C120.393 222.771 117.956 223.784 115.413 223.788C112.868 223.788 110.427 222.777 108.627 220.977C106.827 219.177 105.815 216.735 105.815 214.19C105.815 211.644 106.827 209.203 108.627 207.403C110.427 205.603 112.868 204.592 115.413 204.592C117.956 204.595 120.393 205.608 122.189 207.408C123.985 209.208 124.993 211.647 124.99 214.19V214.19Z" stroke="#00455D" stroke-width="1.868" stroke-linejoin="round"/>
<path d="M179.427 214.19C179.429 216.732 178.421 219.172 176.626 220.972C174.83 222.771 172.393 223.784 169.85 223.788C167.304 223.788 164.863 222.777 163.063 220.977C161.263 219.177 160.252 216.735 160.252 214.19C160.252 211.644 161.263 209.203 163.063 207.403C164.863 205.603 167.304 204.592 169.85 204.592C172.393 204.595 174.83 205.608 176.626 207.408C178.421 209.208 179.429 211.647 179.427 214.19Z" fill="#97CAD1"/>
<path d="M179.427 214.19C179.429 216.732 178.421 219.172 176.626 220.972C174.83 222.771 172.393 223.784 169.85 223.788C167.304 223.788 164.863 222.777 163.063 220.977C161.263 219.177 160.252 216.735 160.252 214.19C160.252 211.644 161.263 209.203 163.063 207.403C164.863 205.603 167.304 204.592 169.85 204.592C172.393 204.595 174.83 205.608 176.626 207.408C178.421 209.208 179.429 211.647 179.427 214.19V214.19Z" stroke="#00455D" stroke-width="1.868" stroke-linejoin="round"/>
<path d="M233.863 214.19C233.865 216.732 232.857 219.172 231.062 220.972C229.266 222.771 226.829 223.784 224.286 223.788C218.997 223.788 214.71 219.491 214.71 214.19C214.71 208.889 218.997 204.592 224.286 204.592C226.829 204.595 229.266 205.608 231.062 207.408C232.857 209.208 233.865 211.647 233.863 214.19Z" fill="#97CAD1"/>
<path d="M233.863 214.19C233.865 216.732 232.857 219.172 231.062 220.972C229.266 222.771 226.829 223.784 224.286 223.788C218.997 223.788 214.71 219.491 214.71 214.19C214.71 208.889 218.997 204.592 224.286 204.592C226.829 204.595 229.266 205.608 231.062 207.408C232.857 209.208 233.865 211.647 233.863 214.19V214.19Z" stroke="#00455D" stroke-width="1.868" stroke-linejoin="round"/>
<path d="M287.292 214.19C287.294 216.732 286.287 219.172 284.491 220.972C282.695 222.771 280.258 223.784 277.715 223.788C275.17 223.788 272.728 222.777 270.928 220.977C269.128 219.177 268.117 216.735 268.117 214.19C268.117 211.644 269.128 209.203 270.928 207.403C272.728 205.603 275.17 204.592 277.715 204.592C280.258 204.595 282.695 205.608 284.491 207.408C286.287 209.208 287.294 211.647 287.292 214.19Z" fill="#97CAD1"/>
<path d="M287.292 214.19C287.294 216.732 286.287 219.172 284.491 220.972C282.695 222.771 280.258 223.784 277.715 223.788C275.17 223.788 272.728 222.777 270.928 220.977C269.128 219.177 268.117 216.735 268.117 214.19C268.117 211.644 269.128 209.203 270.928 207.403C272.728 205.603 275.17 204.592 277.715 204.592C280.258 204.595 282.695 205.608 284.491 207.408C286.287 209.208 287.294 211.647 287.292 214.19V214.19Z" stroke="#00455D" stroke-width="1.868" stroke-linejoin="round"/>
<path d="M343.745 214.19C343.747 216.732 342.74 219.172 340.944 220.972C339.148 222.771 336.711 223.784 334.168 223.788C331.623 223.788 329.181 222.777 327.382 220.977C325.582 219.177 324.57 216.735 324.57 214.19C324.57 211.644 325.582 209.203 327.382 207.403C329.181 205.603 331.623 204.592 334.168 204.592C336.711 204.595 339.148 205.608 340.944 207.408C342.74 209.208 343.747 211.647 343.745 214.19V214.19Z" stroke="#353E48" stroke-width="1.868" stroke-linejoin="round"/>
<path fill-rule="evenodd" clip-rule="evenodd" d="M86.7194 99.5176L77.6104 147.587C77.6104 147.587 81.6584 151.086 83.3934 149.717C85.1284 148.348 90.1894 142.415 95.8274 142.567L97.8514 142.719C97.8514 142.719 96.9674 136.635 99.7224 132.68C102.477 128.725 114.913 101.039 86.7194 99.5176Z" fill="#0098AB"/>
<path fill-rule="evenodd" clip-rule="evenodd" d="M102.808 169.372C115.992 177.413 114.943 174.742 116.591 178.411C118.239 182.08 132.172 200.551 132.172 200.551L140.112 193.373C140.112 193.373 120.336 161.896 97.5648 144.403C97.5648 144.403 91.8718 142.759 89.7738 145.898C87.6758 149.037 83.9308 152.178 80.6348 151.43C80.6348 151.43 81.0848 158.757 102.808 169.372Z" fill="#F6F7F8"/>
<path fill-rule="evenodd" clip-rule="evenodd" d="M125.998 148.014C125.998 148.014 134.212 144.639 139.589 144.946C144.966 145.253 149.147 144.178 149.147 144.178C149.147 144.178 153.03 123.766 148.4 119.93L158.257 114.251C158.257 114.251 157.212 93.9936 142.128 87.3936C142.128 87.3936 134.511 89.8496 129.284 123.613L125.998 148.014ZM127.006 149.695C127.006 149.695 127.158 154.468 129.751 156.777C132.344 159.086 156.727 171.711 156.727 171.711C156.727 171.711 171.848 187.724 175.052 192.805C178.256 197.886 182.525 203.582 182.525 203.582L191.524 195.68C191.524 195.68 178.254 163.09 149.732 146C149.732 146 139.665 145.846 134.937 147.077C130.209 148.308 127.006 149.695 127.006 149.695Z" fill="#EFDECC"/>
<path fill-rule="evenodd" clip-rule="evenodd" d="M184.266 146.68C184.266 146.68 182.45 153.625 184.266 156.941C186.082 160.257 212.642 180.344 212.642 180.344L219.75 168.252L203.103 147.775C203.103 147.775 199.362 145.389 197.491 146.68C195.62 147.971 190.231 147.159 189.091 146.297C187.951 145.435 184.266 146.68 184.266 146.68Z" fill="#0098AB"/>
<path fill-rule="evenodd" clip-rule="evenodd" d="M201.838 97.4971C201.838 97.4971 211.12 103.264 211.386 118.261C211.652 133.258 212.997 135.95 212.997 135.95L215.718 139.656L211.386 144.024L206.263 141.525L204.724 149.023C204.724 149.023 202.222 145.615 198.567 145.781C194.912 145.947 192.602 147.538 188.369 145.781C184.136 144.024 181.443 144.863 181.443 144.863L201.838 97.4971Z" fill="#F6F7F8"/>
<path fill-rule="evenodd" clip-rule="evenodd" d="M224.983 85.373L221.463 88.394C221.463 88.394 222.85 91.307 221.57 93.142C220.436 94.767 219.33 97.214 217.197 97.498C215.064 97.782 213.464 99.509 212.824 101.882C212.184 104.255 214.104 107.601 214.104 107.601L228.823 87.748L224.983 85.373Z" fill="white"/>
<path fill-rule="evenodd" clip-rule="evenodd" d="M220.682 83.37C220.682 83.37 218.571 91.746 199.449 87.725C196.517 86.724 188.305 89.631 186.428 90.749C184.551 91.867 177.747 92.08 176.574 87.725C175.401 83.37 180.584 82.363 181.687 82.363C182.79 82.363 186.31 79.68 183.847 76.772C182.44 75.43 188.188 73.865 193.701 74.983C199.214 76.101 207.426 73.326 212.94 74.602C218.454 75.878 221.268 81.021 220.682 83.37Z" fill="#EFDECC"/>
<path fill-rule="evenodd" clip-rule="evenodd" d="M229.785 38.8984L206.646 52.3484L233.864 61.1254L229.785 38.8984Z" fill="#FA6666"/>
<path fill-rule="evenodd" clip-rule="evenodd" d="M243.847 104.277C243.847 104.277 236.948 118.758 236.13 126.763C235.312 134.768 232.855 154.076 232.855 154.076L256.126 150.309C256.126 150.309 254.489 145.011 256.126 140.89C257.763 136.769 261.388 123.584 261.388 123.584L257.529 121.466L262.09 108.398C262.09 108.398 252.852 101.334 243.847 104.277Z" fill="white"/>
<path fill-rule="evenodd" clip-rule="evenodd" d="M237.896 156.733C237.896 156.733 253.111 170.416 258.833 173.272L270.154 161.088L256.535 151.045L237.896 156.733Z" fill="#EFDECC"/>
<path fill-rule="evenodd" clip-rule="evenodd" d="M142.161 68.1972C142.161 68.1972 141.245 58.9672 149.114 56.5242C156.983 54.0812 163.297 62.3612 163.297 62.3612L142.161 68.1972ZM297.374 211.672L301.809 219.747C301.809 219.747 308.26 214.595 308.395 212.646C308.529 210.697 310.546 209.862 311.083 209.862C311.62 209.862 319.552 200.396 319.552 200.396C319.552 200.396 316.863 196.915 313.771 197.611C310.679 198.307 305.707 201.091 305.707 201.091C305.707 201.091 304.094 208.1 300.599 208.632L297.374 211.672Z" fill="#0098AB"/>
<path d="M227.815 157.106L246.968 172.261" stroke="#00455D" stroke-width="1.868" stroke-linecap="round" stroke-linejoin="round"/>
<path d="M205.942 90.4238C205.942 90.4238 202.861 97.6488 199.951 97.8268C197.554 102.88 180.436 147.007 180.436 147.007C180.436 147.007 184.373 144.884 186.941 146.132C189.509 147.38 191.734 148.763 195.158 147.536C198.582 146.309 202.689 146.865 204.402 148.013L207.654 142.21" stroke="#00455D" stroke-width="1.705" stroke-linecap="round" stroke-linejoin="round"/>
<path d="M199.589 112.103L203.987 133.923C204.904 136.993 207.469 141.558 212.417 144.061C217.365 146.564 221.213 151.548 221.213 154.382C221.213 157.216 227.078 158.116 227.078 158.116C227.078 158.116 232.209 155.017 224.878 147.088C217.547 139.159 212.234 135.109 212.234 135.109C212.234 135.109 216.083 105.063 207.653 101.538M213.735 109.621L241.928 73.6773C241.928 73.6773 242.109 70.9583 238.29 71.5223L235.197 68.1973C235.197 68.1973 229.569 73.2253 230.019 74.4233C230.469 75.6213 232.833 76.6793 230.65 79.1553C228.467 81.6313 221.919 87.6413 221.919 87.6413C221.919 87.6413 223.556 94.5353 219.919 95.4193C216.282 96.3033 210.46 99.4543 211.915 103.611" stroke="#00455D" stroke-width="1.868" stroke-linecap="round" stroke-linejoin="round"/>
<path d="M221.767 82.3425C221.767 82.3425 221.767 72.1695 209.67 71.2285M216.727 78.3015C216.727 78.3015 216.014 73.4645 204.962 74.3745C193.91 75.2845 191.592 74.9495 187.492 74.2605M212.694 78.8655C212.694 78.8655 206.766 77.3465 203.453 78.7675C201.36 80.0115 194.56 78.8985 190.724 77.6805C186.888 76.4625 180.436 78.4965 180.436 78.4965M217.735 81.3315C217.735 81.3315 213.875 85.0815 194.225 82.2485C184.755 82.2485 180.436 85.3725 180.436 85.3725M218.743 85.3735C218.743 85.3735 211.576 88.4765 202.311 86.9915C193.046 85.5065 188.5 87.3935 188.5 87.3935" stroke="#00455D" stroke-width="1.705" stroke-linecap="round" stroke-linejoin="round"/>
<path d="M243.716 195.499C243.716 195.499 250.7 205.965 253.028 205.7C255.356 205.435 259.108 199.606 262.083 199.871C265.058 200.136 266.867 200.558 267.126 201.34C267.385 202.122 254.71 220.008 253.674 219.744C252.638 219.48 248.501 212.192 248.501 212.192L237.896 207.622L240.224 202.256" fill="#0098AB"/>
<path d="M243.716 195.499C243.716 195.499 250.7 205.965 253.028 205.7C255.356 205.435 259.108 199.606 262.083 199.871C265.058 200.136 266.867 200.558 267.126 201.34C267.385 202.122 254.71 220.008 253.674 219.744C252.638 219.48 248.501 212.192 248.501 212.192L237.896 207.622L240.224 202.256" stroke="#00455D" stroke-width="1.868" stroke-linecap="round" stroke-linejoin="round"/>
<path d="M222.774 150.539C222.774 152.492 221.195 154.075 219.246 154.075C217.297 154.075 215.718 152.492 215.718 150.539C215.718 148.586 217.297 147.003 219.246 147.003C221.195 147.003 222.774 148.586 222.774 150.539Z" fill="white"/>
<path d="M222.775 150.539C222.775 152.492 221.196 154.075 219.247 154.075C217.298 154.075 215.719 152.492 215.719 150.539C215.719 148.586 217.298 147.003 219.247 147.003C221.196 147.003 222.775 148.586 222.775 150.539Z" stroke="#00455D" stroke-width="1.868" stroke-linejoin="bevel"/>
<path d="M238.905 87.3942L231.305 35.8672C231.305 35.8672 206.646 51.3372 206.646 53.4382C206.646 55.5392 236.722 66.0412 236.722 66.0412M211.686 144.982L217.735 138.92" stroke="#00455D" stroke-width="1.868" stroke-linecap="round" stroke-linejoin="round"/>
<path d="M145.711 82.3418C145.711 82.3418 136.716 90.9098 133.664 104.676L124.99 146.469C124.99 146.469 130.933 148.525 139.126 144.567C143.623 142.666 152.939 143.458 152.939 143.458C152.939 143.458 151.976 132.058 154.224 128.1" stroke="#00455D" stroke-width="1.705" stroke-linecap="round" stroke-linejoin="round"/>
<path d="M145.473 119.724L161.229 112.751C161.229 112.751 163.115 91.9886 144.144 83.3516M140.111 104.569L147.168 118.714M161.156 115.683C161.156 115.683 169.095 136.816 172.63 141.142C176.165 145.468 177.395 152.419 175.55 154.735C173.705 157.051 172.016 159.303 169.403 157.406C166.79 155.509 168.327 154.837 167.098 153.782C165.869 152.727 169.864 147.226 169.864 147.226C169.864 147.226 154.342 136.041 150.192 119.59" stroke="#00455D" stroke-width="1.705" stroke-linecap="round" stroke-linejoin="round"/>
<path d="M169.346 150.539C169.346 152.492 167.766 154.075 165.818 154.075C163.87 154.075 162.289 152.492 162.289 150.539C162.289 148.586 163.869 147.003 165.818 147.003C167.767 147.003 169.346 148.586 169.346 150.539Z" fill="white"/>
<path d="M169.345 150.539C169.345 152.492 167.765 154.075 165.817 154.075C163.869 154.075 162.288 152.492 162.288 150.539C162.288 148.586 163.868 147.003 165.817 147.003C167.766 147.003 169.345 148.586 169.345 150.539Z" stroke="#00455D" stroke-width="1.705" stroke-linejoin="bevel"/>
<path d="M156.108 93.4554C156.108 93.4554 152.815 83.3564 158.996 82.0974C165.177 80.8384 169.201 83.3764 169.345 72.2384M129.021 72.2394C129.021 72.2394 143.777 69.9854 154.434 66.6714C165.091 63.3574 166.32 62.6744 166.32 62.6744C166.32 62.6744 163.904 54.0664 153.431 55.1594C142.958 56.2524 143.886 67.8664 143.886 67.8664" stroke="#00455D" stroke-width="1.705" stroke-linecap="round" stroke-linejoin="bevel"/>
<path d="M142.294 70.218C142.294 70.218 141.007 76.081 145.583 77.113C145.583 77.113 143.191 80.994 148.176 80.218M154.224 69.208C154.224 69.208 149.688 72.984 154.224 76.28" stroke="#00455D" stroke-width="1.705" stroke-linecap="round" stroke-linejoin="round"/>
<path d="M159.265 67.999C159.265 67.999 159.125 71.571 162.481 71.201C165.837 70.831 165.837 67.999 165.837 67.999C165.837 67.999 168.074 70.339 170.171 68.985C172.268 67.631 171.15 65.536 170.171 65.167" stroke="#00455D" stroke-width="1.868" stroke-linecap="round" stroke-linejoin="round"/>
<path d="M127.013 147.271C127.013 147.271 126.598 154.134 132.141 157.054C137.684 159.974 161.246 173.381 161.246 173.381L182.591 203.582L193.54 194.55C193.54 194.55 181.343 163.632 151.075 142.963M175.394 157.107L194.548 172.262" stroke="#00455D" stroke-width="1.705" stroke-linecap="round" stroke-linejoin="round"/>
<path d="M186.483 200.328L189.99 205.127C189.99 205.127 188.832 207.858 189.218 208.769C189.604 209.68 193.863 216.311 194.694 215.66C195.525 215.009 215.075 195.634 215.661 193.943C216.247 192.252 212.182 189.581 209.259 190.722L195.781 196.024L194.694 193.608" fill="#0098AB"/>
<path d="M186.483 200.327L189.99 205.126C189.99 205.126 188.832 207.857 189.218 208.768C189.604 209.679 193.863 216.31 194.694 215.659C195.525 215.008 215.075 195.633 215.661 193.942C216.247 192.251 212.182 189.58 209.259 190.721L195.781 196.023L194.694 193.607" stroke="#353E48" stroke-width="1.705" stroke-linecap="round" stroke-linejoin="round"/>
<path d="M195.125 196.509C195.125 196.509 197.872 204.303 189.508 205.602" stroke="#353E48" stroke-width="1.705" stroke-linecap="round" stroke-linejoin="round"/>
<path d="M144.742 148.013L142.127 154.068L153.666 161.181C156.116 162.557 159.937 162.635 161.281 160.399" stroke="#00455D" stroke-width="1.705" stroke-linecap="round" stroke-linejoin="round"/>
<path d="M147.168 149.022L145.152 155.084" stroke="#00455D" stroke-width="1.705" stroke-linecap="round" stroke-linejoin="round"/>
<path d="M94.1826 91.4346C94.1826 91.4346 85.8886 96.9866 80.0456 141.972C79.1036 148.29 79.1036 157.287 87.1146 161.69L114.731 176.813L131.695 200.55C131.695 200.55 139.424 195.765 141.12 191.553C141.12 191.553 122.836 163.03 103.421 146.949" stroke="#00455D" stroke-width="1.868" stroke-linecap="round" stroke-linejoin="bevel"/>
<path d="M92.7767 98.5068C92.7767 98.5068 115.245 106.653 105.322 126.164C105.322 126.164 100.692 131.744 100.315 143.435C100.315 143.435 91.4628 142.5 89.7678 145.618C88.0728 148.736 84.9918 151.697 81.7568 150.918C78.5218 150.139 76.5178 149.203 75.5938 150.139" stroke="#00455D" stroke-width="1.705" stroke-linecap="round" stroke-linejoin="bevel"/>
<path d="M88.7393 101.538C88.7393 101.538 87.4593 121.936 99.3673 133.932C111.275 145.928 116.484 151.925 116.484 151.925L114.438 153.473L119.833 158.116C119.833 158.116 122.996 152.506 118.717 147.088C114.438 141.67 100.345 122.13 100.345 122.13V106.846" stroke="#00455D" stroke-width="1.705" stroke-linecap="round" stroke-linejoin="round"/>
<path d="M89.7066 74.7053C89.7066 74.7053 92.4426 65.8633 101.144 66.1853C109.845 66.5073 113.107 75.0273 113.107 76.7953C113.107 78.5633 114.039 79.8503 113.883 82.9043C113.727 85.9583 112.87 96.0863 106.074 94.9603C99.2776 93.8343 104.076 105.579 104.076 105.579M86.6826 78.3003C86.6826 78.3003 86.8496 86.4403 95.7556 89.4143M111.885 76.2963C111.885 76.2963 105.627 75.6603 102.812 82.3424" stroke="#00455D" stroke-width="1.868" stroke-linecap="round" stroke-linejoin="bevel"/>
<path d="M116.925 150.539C116.925 152.492 115.346 154.075 113.397 154.075C111.448 154.075 109.869 152.492 109.869 150.539C109.869 148.586 111.449 147.003 113.397 147.003C115.345 147.003 116.925 148.586 116.925 150.539Z" fill="white"/>
<path d="M116.925 150.539C116.925 152.492 115.346 154.075 113.397 154.075C111.448 154.075 109.869 152.492 109.869 150.539C109.869 148.586 111.449 147.003 113.397 147.003C115.345 147.003 116.925 148.586 116.925 150.539Z" stroke="#00455D" stroke-width="1.705" stroke-linejoin="bevel"/>
<path d="M120.958 155.085L141.119 171.251" stroke="#00455D" stroke-width="1.705" stroke-linecap="round" stroke-linejoin="bevel"/>
<path d="M137.087 197.872L140.757 205.33C140.757 205.33 139.498 208.43 141.404 210.182C142.587 211.276 143.698 212.446 144.728 213.685L148.983 209.103C148.983 209.103 149.135 206.226 149.839 205.778C150.543 205.33 158.547 201.693 161.281 195.36C161.281 195.36 159.902 189.431 151.11 194.551C147.423 196.303 145.863 197.246 145.863 197.246C145.863 197.246 143.877 203.444 142.317 204.387" fill="#0098AB"/>
<path d="M137.087 197.872L140.757 205.33C140.757 205.33 139.498 208.43 141.404 210.182C142.587 211.276 143.698 212.446 144.728 213.685L148.983 209.103C148.983 209.103 149.135 206.226 149.839 205.778C150.543 205.33 158.547 201.693 161.281 195.36C161.281 195.36 159.902 189.431 151.11 194.551C147.423 196.303 145.863 197.246 145.863 197.246C145.863 197.246 143.877 203.444 142.317 204.387" stroke="#353E48" stroke-width="1.705" stroke-linecap="round" stroke-linejoin="round"/>
<path d="M303.373 200.55C303.373 200.55 304.263 206.275 298.381 206.612" stroke="#353E48" stroke-width="1.705" stroke-linecap="round" stroke-linejoin="round"/>
<path d="M236.888 150.034C236.888 150.034 240.446 117.398 243.524 111.652C246.602 105.906 253.269 94.77 249.46 89.463C245.651 84.156 242.223 79.221 243.746 77.839C245.269 76.457 259.936 72.03 261.079 73.57C262.222 75.11 268.128 87.566 268.128 89.229C268.128 90.892 268.699 96.195 261.46 97.97C258.603 99.36 259.175 105.519 259.175 105.519M247.976 104.569C247.976 104.569 260.879 106.085 273.974 118.556C287.069 131.027 301.705 142.732 302.475 145.059C303.245 147.386 305.363 156.28 298.816 153.565C295.734 151.82 296.505 146.852 296.505 146.852L249.518 116.209" stroke="#00455D" stroke-width="1.868" stroke-linecap="round" stroke-linejoin="round"/>
<path d="M263.098 124.776L258.056 143.972M249.634 146.464C249.634 146.464 258.326 145.403 258.133 146.464C257.94 147.525 260.998 152.928 263.622 153.674C266.246 154.42 273.199 158.441 272.04 160.165C270.881 161.889 260.258 175.292 260.258 175.292C260.258 175.292 238.625 159.946 236.887 155.747M232.854 155.085L255.033 150.034M257.048 83.3521L264.105 81.3311M260.061 86.3831C260.061 86.3831 256.897 87.1091 257.055 89.2941C257.213 91.4791 259.57 92.4451 261.082 92.4451" stroke="#00455D" stroke-width="1.868" stroke-linecap="round" stroke-linejoin="round"/>
<path fill-rule="evenodd" clip-rule="evenodd" d="M213.702 178.788L219.765 182.512C219.765 182.512 223.345 187.556 227.816 191.039C232.287 194.522 240.527 200.55 240.527 200.55L243.944 194.418L222.499 168.22L213.702 178.788ZM264.106 171.393L277.44 179.735L296.762 208.633C296.762 208.633 305.065 207.118 303.016 201.676C300.86 195.952 286.586 171.393 286.586 171.393L271.731 162.158L264.106 171.393Z" fill="#97CAD1"/>
<path d="M290.62 210.324C290.62 210.324 294.236 208.01 296.33 210.324C298.424 212.638 299.946 217.845 301.659 216.495C303.372 215.145 319.551 196.439 319.551 196.439C319.551 196.439 317.457 193.756 313.65 194.229C309.843 194.702 302.595 199.928 302.595 199.928L287.955 172.12C285.861 167.857 275.195 161.147 275.195 161.147M263.098 172.261L277.686 180.063L297.373 208.633M215.031 179.845C215.031 179.845 218.852 182.832 220.534 183.481C220.534 183.481 222.82 189.844 226.204 191.533C228.942 193.299 240.452 202.571 240.452 202.571L243.944 195.948C243.944 195.948 216.265 156.21 209.669 152.054M184.135 144.982C184.135 144.982 181.771 155.069 185.884 159.641C189.997 164.213 212.749 180.344 212.749 180.344L222.774 168.278" stroke="#00455D" stroke-width="1.868" stroke-linecap="round" stroke-linejoin="round"/>
</g>
</g>
<defs>
<clipPath id="clip0_2_1944">
<rect width="379" height="269" fill="white" transform="translate(0.0800781)"/>
</clipPath>
<clipPath id="clip1_2_1944">
<rect width="379" height="269" fill="white" transform="translate(0.0800781)"/>
</clipPath>
</defs>
</svg>
