<svg width="119" height="34" viewBox="0 0 119 34" fill="none" xmlns="http://www.w3.org/2000/svg">
<g clip-path="url(#clip0_2_2447)">
<path fill-rule="evenodd" clip-rule="evenodd" d="M118.335 19.8614C118.322 19.7279 118.291 19.5969 118.241 19.4721C117.927 18.6545 116.496 19.4169 116.007 19.6217C115.127 19.9906 114.121 20.4768 113.147 20.198C112.878 20.1206 112.957 19.8911 113.147 19.7739C113.242 19.7161 115.743 18.3009 116.48 15.1646C117.657 10.1474 114.043 8.75178 112.617 8.58264C111.167 8.41095 109.549 8.63449 108.868 8.90902C106.936 9.68502 106.432 11.4104 106.298 12.4439C106.116 13.865 106.094 16.3452 105.919 17.4612C105.803 18.1964 105.256 19.3123 104.178 19.2061C102.098 19.0013 101.143 18.2032 101.209 16.8925C101.255 15.9712 101.242 15.7876 101.532 13.7444C101.781 11.9935 101.938 11.5761 101.938 11.1758C101.938 10.0292 100.398 9.79806 99.8825 10.314C99.4847 10.7126 99.3853 11.526 99.2858 12.8995C99.1924 14.1906 98.9943 15.8701 98.7385 16.8942C98.3407 18.4896 98.181 18.606 97.818 19.0625C97.0642 20.011 95.6712 19.7169 94.9912 19.0701C94.5918 18.6893 94.5374 18.3519 94.6147 17.2342C94.6921 16.1165 94.8748 14.1693 95.1315 12.1388C95.355 10.3624 95.2012 10.0955 94.6555 9.59747C94.1481 9.1334 92.2044 9.20225 91.3043 9.20225C89.9113 9.20225 89.9946 9.86521 89.9028 12.1261C89.8629 13.1128 89.817 14.6104 89.7184 15.7698C89.5586 17.6566 85.9576 19.0761 84.3019 18.9911C82.586 18.9027 82.4211 15.6992 82.3131 14.9538C82.2035 14.2093 82.1602 7.78029 82.3454 7.56186C82.4772 7.40887 83.5098 7.29157 84.6869 7.06124C87.2936 6.55127 87.6684 6.2164 87.6718 5.40045C87.6735 5.00013 87.648 4.44001 87.2044 4.28957C86.9443 4.20118 86.2695 4.10088 85.3745 3.99549C82.7933 3.69121 82.4296 3.78471 82.4151 3.45748C82.3905 2.88461 82.4449 1.78224 82.399 1.34792C82.2868 0.280386 81.0357 -0.0782905 79.6266 0.0152033C79.3487 0.0330521 78.9636 0.123146 78.9331 0.495422C78.9025 0.868547 78.905 1.15583 78.86 1.78734C78.7605 3.19059 78.7325 3.34273 78.1885 3.34018C77.7041 3.33763 73.6738 2.98151 72.8995 3.22969C72.1244 3.47788 72.1559 4.00569 72.0938 4.27002C72.0318 4.53351 72.1703 6.11695 72.2485 6.80031C72.3259 7.48281 72.4754 8.4118 72.5681 8.55119C72.6616 8.69143 72.9522 9.08751 73.7614 8.98636C76.51 8.64214 78.3432 8.22651 78.7155 8.13387C79.0869 8.04038 79.1294 7.99363 79.1336 8.28856C79.1353 8.456 79.205 11.8124 79.2169 12.8094C79.2365 14.5144 79.5246 19.4534 74.93 20.2192C73.0185 20.538 71.2269 19.9812 70.4119 19.0828C69.9495 18.5729 70.1764 18.5066 70.3804 18.1751C70.6898 17.6711 73.2718 14.6376 71.1079 11.4911C69.8322 9.63487 66.7725 9.48783 65.6617 9.96975C64.8008 10.3429 64.1047 11.4996 63.9704 12.9106C63.5556 17.2623 66.0459 19.954 66.1428 20.1198C66.2584 20.3187 65.8232 20.9595 64.3019 21.1822C62.2621 21.4814 59.1302 19.0208 59.2109 18.7004C59.2508 18.5474 60.6379 16.2755 60.671 14.0801C60.6821 13.333 60.4356 12.3496 59.9248 11.356C59.4132 10.3624 57.8034 8.82912 56.0611 9.1657C51.9612 9.95615 52.4286 14.007 52.7125 15.1128C53.3023 17.3991 54.6834 19.4169 54.9087 19.8206C55.2155 20.3688 46.2336 23.9335 45.886 20.5966C45.5401 17.2886 50.4509 10.1559 50.0642 7.38847C49.7157 4.89558 48.0397 4.37372 46.5821 4.34822C45.1653 4.32272 44.7913 4.5488 44.312 4.82759C44.0358 4.98823 43.6388 5.30611 43.0881 4.78084C42.7218 4.43151 42.4796 4.18673 42.092 3.8765C41.8957 3.71926 41.5812 3.51952 41.0543 3.44218C40.5273 3.36483 39.8457 3.44218 39.4122 3.62832C38.9788 3.8153 38.6371 4.14083 38.281 4.45106C37.9241 4.76129 37.0206 5.77612 36.1783 5.40215C35.8129 5.23981 34.5746 4.6202 33.6822 4.23348C31.9577 3.48552 29.4709 4.6967 28.5759 6.29119C27.2424 8.66423 24.6119 17.9864 24.2142 19.2154C23.3201 21.9761 25.3445 24.2267 28.077 24.0975C29.2312 24.0423 30.0003 23.6199 30.7296 22.2905C31.1511 21.523 35.1117 11.1588 35.4058 10.6625C35.6199 10.3012 36.3322 9.82611 36.9356 10.1355C37.5407 10.4466 37.6606 11.0942 37.5713 11.7036C37.4269 12.6896 34.6341 19.0132 34.527 19.728C34.3442 20.9451 34.9213 21.6216 36.1817 21.6879C37.0452 21.733 37.9062 21.4219 38.5895 20.1308C38.972 19.4092 43.3754 10.5707 43.7655 9.9808C44.1938 9.33314 44.5389 9.1198 44.9741 9.14275C45.3132 9.15975 45.8546 9.2473 45.7186 10.2638C45.586 11.26 42.0453 17.7459 41.673 19.3336C41.1095 21.7423 42.6513 24.9823 46.781 25.1311C48.8326 25.2058 53.5819 24.31 56.2575 22.2778C57.2289 21.54 56.9722 21.4763 57.5774 22.0135C58.4485 22.7861 60.0651 23.874 61.6569 23.874C65.2716 23.874 67.9114 21.6131 68.0313 21.5315C68.0501 21.5186 68.0729 21.513 68.0956 21.5156C68.1182 21.5183 68.1392 21.5291 68.1545 21.546C68.3738 21.784 70.615 23.0342 72.1856 23.0861C75.9244 23.2093 78.1384 21.1312 78.9747 20.1529C79.4346 19.6147 79.8637 19.0509 80.2598 18.4641C80.2711 18.4474 80.286 18.4334 80.3035 18.4233C80.3209 18.4132 80.3405 18.4072 80.3606 18.4057C80.3807 18.4042 80.4009 18.4074 80.4197 18.4148C80.4384 18.4223 80.4552 18.4339 80.4688 18.4488C80.6924 18.6953 82.3786 21.7993 85.7281 21.3709C87.5962 21.1321 90.3745 19.5529 90.5692 19.3395C90.5791 19.3283 90.5918 19.3199 90.606 19.3152C90.6202 19.3104 90.6354 19.3095 90.65 19.3125C90.6647 19.3155 90.6783 19.3224 90.6895 19.3323C90.7006 19.3423 90.709 19.3551 90.7137 19.3693C90.8114 19.6396 91.2389 21.1627 92.9515 22.3738C94.3555 23.3674 97.0582 23.5663 98.2574 22.9059C99.2518 22.3585 99.6505 22.0084 100.347 21.3114C100.646 21.0114 101.101 20.7079 101.922 20.8822C102.84 21.0768 105.266 21.5069 105.42 21.5808C105.595 21.6633 105.622 21.9803 105.57 22.3118C105.487 22.8337 105.29 24.6627 105.089 26.3703C104.888 28.0778 104.244 33.775 105.769 33.9858C106.69 34.1133 107.49 33.2395 107.702 32.387C108.232 30.2477 108.329 27.8398 108.677 25.7745C109.094 23.3156 109.259 22.6263 109.408 22.3517C109.532 22.124 109.532 22.1775 111.25 22.3237C112.44 22.4257 113.405 22.5914 114.839 22.3908C116.027 22.2242 118.466 21.3233 118.335 19.8614ZM58.9287 14.3351C58.8718 15.14 58.6653 15.6499 58.2394 16.3911C57.9734 16.8534 57.6981 16.5075 57.5383 16.2789C57.3088 15.9508 56.1359 13.0967 57.0317 12.5077C57.2842 12.3419 57.7847 12.2467 58.1468 12.4499C58.5089 12.6522 58.7273 12.9471 58.8267 13.276C58.9287 13.6101 58.9661 13.797 58.9287 14.3351ZM70.0557 14.7498C69.9512 15.6763 69.5585 16.2007 69.4141 16.3953C69.1582 16.7387 69.0554 16.8738 68.8106 16.6248C68.6117 16.4225 67.8681 14.9079 67.761 13.9092C67.7023 13.3721 67.8511 12.6046 68.3015 12.4244C68.7758 12.2348 69.256 12.3207 69.5934 12.7618C70.1229 13.4562 70.1305 14.0911 70.0557 14.7498ZM110.436 18.81C109.877 19.0395 109.634 18.8993 109.667 17.9754C109.673 17.7765 110.57 13.1417 112.284 12.302C112.771 12.064 113.263 12.0742 113.605 12.455C114.251 13.1749 114.081 14.2841 113.595 15.2955C112.891 16.7634 111.203 18.4947 110.436 18.81Z" fill="#F64060"/>
</g>
<defs>
<clipPath id="clip0_2_2447">
<rect width="94.34" height="34" fill="white" transform="translate(24)"/>
</clipPath>
</defs>
</svg>
