<svg width="21" height="20" viewBox="0 0 21 20" fill="none" xmlns="http://www.w3.org/2000/svg">
<path fill-rule="evenodd" clip-rule="evenodd" d="M14.0898 8.75C14.0898 11.5114 11.8513 13.75 9.08984 13.75C6.32842 13.75 4.08984 11.5114 4.08984 8.75C4.08984 5.98857 6.32842 3.75 9.08984 3.75C11.8513 3.75 14.0898 5.98857 14.0898 8.75ZM15.3398 8.75C15.3398 12.2017 12.5416 15 9.08984 15C5.63806 15 2.83984 12.2017 2.83984 8.75C2.83984 5.29822 5.63806 2.5 9.08984 2.5C12.5416 2.5 15.3398 5.29822 15.3398 8.75ZM14.0646 14.6086L13.6372 14.1812C13.9571 13.9131 14.2529 13.6173 14.521 13.2973L14.9484 13.7247L17.4484 16.2247C17.6925 16.4688 17.6925 16.8645 17.4484 17.1086C17.2043 17.3527 16.8087 17.3527 16.5646 17.1086L14.0646 14.6086Z" fill="white"/>
</svg>
