<svg width="23" height="22" viewBox="0 0 23 22" fill="none" xmlns="http://www.w3.org/2000/svg">
<path fill-rule="evenodd" clip-rule="evenodd" d="M15.4648 9.625C15.4648 12.6626 13.0024 15.125 9.96484 15.125C6.92728 15.125 4.46484 12.6626 4.46484 9.625C4.46484 6.58743 6.92728 4.125 9.96484 4.125C13.0024 4.125 15.4648 6.58743 15.4648 9.625ZM16.8398 9.625C16.8398 13.4219 13.7618 16.5 9.96484 16.5C6.16788 16.5 3.08984 13.4219 3.08984 9.625C3.08984 5.82804 6.16788 2.75 9.96484 2.75C13.7618 2.75 16.8398 5.82804 16.8398 9.625ZM15.4371 16.0694L14.9669 15.5993C15.3188 15.3044 15.6442 14.979 15.9391 14.6271L16.4093 15.0972L19.1593 17.8472C19.4278 18.1157 19.4278 18.551 19.1593 18.8194C18.8908 19.0879 18.4556 19.0879 18.1871 18.8194L15.4371 16.0694Z" fill="#707070"/>
</svg>
